<svg version="1.1" id="Camada_1" xmlns="http://www.w3.org/2000/svg" x="0" y="0" viewBox="0 0 100% 100%" xml:space="preserve"><style>.st2{opacity:.5;fill:#55185d}</style><pattern x="-490" y="-250" width="150" height="150" patternUnits="userSpaceOnUse" id="Time_Heist" viewBox="0 -300 300 300" overflow="visible"><g id="XMLID_37_"><path id="XMLID_68_" fill="none" d="M0-300h300V0H0z"/><path id="XMLID_67_" fill="#290849" d="M300 0H0v-300h300z"/><path id="XMLID_64_" class="st2" d="M130.3-225c0 30.5-24.7 55.3-55.3 55.3S19.7-194.5 19.7-225s24.7-55.3 55.3-55.3 55.3 24.8 55.3 55.3zm-28.4-2.9h-28v-37h-9v45.2l-.3.8h37.2v-9z"/><path id="XMLID_61_" class="st2" d="M280.3-75.9c0 30.5-24.7 55.3-55.3 55.3s-55.3-24.7-55.3-55.3 24.7-55.3 55.3-55.3 55.3 24.8 55.3 55.3zm-28.4-4h-28v-37h-9V-70.6l-.3-.3h37.2v-9z"/></g></pattern><rect id="XMLID_164_" width="100%" height="100%" fill="url(#Time_Heist)"/></svg>