<svg version="1.1" id="Camada_1" xmlns="http://www.w3.org/2000/svg" x="0" y="0" viewBox="0 0 809.5 475.9" xml:space="preserve"><style>.st0{fill:#ffd524}</style><g id="XMLID_51_"><g id="XMLID_220_"><path id="XMLID_245_" class="st0" d="M140.8 226.5V56.6H84.2V0H254v56.6h-56.6v169.9h-56.6z"/><path id="XMLID_243_" class="st0" d="M394.8 226.5V0h70.8l42.5 84.9L550.5 0h70.8v226.5h-56.6V84.9l-56.6 113.2-56.7-113.2v141.6h-56.6z"/><path id="XMLID_241_" class="st0" d="M639.7 226.5V0h169.9v56.6H696.3v28.3h84.9v56.6h-84.9v28.3h113.2v56.6H639.7z"/><g id="XMLID_230_"><path id="XMLID_239_" class="st0" d="M0 475.9V249.4h56.6v84.9h56.6v-84.9h56.6v226.5h-56.6V391H56.6v84.9H0z"/><path id="XMLID_237_" class="st0" d="M188.2 475.9V249.4h169.9V306H244.9v28.3h84.9v56.6h-84.9v28.3h113.2v56.6H188.2z"/><path id="XMLID_235_" class="st0" d="M376.5 475.9V249.4h56.6v226.5h-56.6z"/><path id="XMLID_233_" class="st0" d="M451.4 475.9v-56.6h113.2V391h-84.9a27 27 0 01-20.1-8.2 27.6 27.6 0 01-8.2-20.1v-84.9a27 27 0 018.2-19.9 27.4 27.4 0 0120.1-8.4h141.6V306H508.1v28.3H593c7.8 0 14.4 2.8 19.9 8.4a27.1 27.1 0 018.4 19.9v84.9c0 8-2.8 14.7-8.4 20.1a27.3 27.3 0 01-19.9 8.2H451.4z"/><path id="XMLID_231_" class="st0" d="M696.3 475.9V306h-56.6v-56.6h169.9V306H753v169.9h-56.7z"/></g><g id="XMLID_225_"><path id="XMLID_228_" class="st0" d="M319.2 55.3V27.6h5.3v27.7h-5.3z"/><path id="XMLID_226_" class="st0" d="M319.2 50H342v5.3h-22.7V50z"/></g><path id="XMLID_221_" class="st0" d="M272.8.6v233h110V.6h-110zM322.2 214a16 16 0 01-15.9-16.3c0-6 8.5-11.3 8.5-14.1v-68h17v68c9 2.8 7.5 8.1 7.5 14.1a17 17 0 01-17.1 16.3zm1.5-123a37.6 37.6 0 11-.1-75.3 37.6 37.6 0 01.1 75.3z"/></g></g></svg>
